<?xml version="1.0" standalone="no"?>
<!DOCTYPE svg PUBLIC "-//W3C//DTD SVG 20010904//EN"
 "http://www.w3.org/TR/2001/REC-SVG-20010904/DTD/svg10.dtd">
<svg version="1.0" xmlns="http://www.w3.org/2000/svg"
 width="96.000000pt" height="96.000000pt" viewBox="0 0 96.000000 96.000000"
 preserveAspectRatio="xMidYMid meet">

<g transform="translate(0.000000,96.000000) scale(0.100000,-0.100000)"
fill="#000000" stroke="none">
<path d="M687 809 c-77 -12 -130 -51 -223 -163 l-85 -103 -98 -22 c-93 -21
-131 -40 -131 -68 0 -6 29 -19 65 -28 36 -10 68 -22 71 -27 12 -19 -10 -50
-47 -64 -22 -9 -47 -29 -58 -48 -18 -29 -43 -131 -34 -139 7 -8 94 12 130 30
25 11 41 29 55 59 17 40 47 62 66 50 5 -3 17 -35 27 -71 9 -36 22 -65 28 -65
28 0 47 38 68 131 l22 98 103 85 c62 52 113 102 129 130 29 49 43 122 35 176
-4 31 -9 35 -40 40 -19 3 -56 2 -83 -1z m15 -106 c38 -37 68 -73 68 -80 0 -38
-294 -289 -324 -277 -11 4 -15 2 -11 -8 3 -8 0 -20 -8 -26 -10 -9 -26 1 -71
47 -51 51 -55 59 -41 71 14 11 21 8 53 -23 54 -53 65 -46 13 7 l-44 45 91 114
c94 118 172 197 194 197 7 0 43 -30 80 -67z m-338 -395 c-16 -26 -71 19 -60
48 6 15 10 14 36 -11 16 -15 27 -32 24 -37z m-94 17 c0 -3 -14 -18 -30 -33
-17 -15 -33 -42 -37 -61 l-6 -34 34 6 c19 4 46 20 62 38 33 36 45 33 25 -8
-15 -32 -88 -73 -130 -73 -24 0 -28 4 -28 28 0 40 41 115 70 129 27 14 40 16
40 8z m25 -65 c-12 -24 -71 -57 -82 -47 -10 11 23 69 46 81 38 20 55 4 36 -34z"/>
<path d="M535 645 c-16 -15 -25 -36 -25 -55 0 -19 9 -40 25 -55 15 -16 36 -25
55 -25 19 0 40 9 55 25 16 15 25 36 25 55 0 19 -9 40 -25 55 -15 16 -36 25
-55 25 -19 0 -40 -9 -55 -25z m105 -7 c26 -28 26 -66 -2 -95 -27 -29 -65 -29
-95 -1 -29 27 -29 65 -1 95 27 29 71 30 98 1z"/>
<path d="M552 628 c-7 -7 -12 -24 -12 -38 0 -14 5 -31 12 -38 17 -17 63 -15
78 3 15 18 7 19 -20 3 -41 -26 -77 26 -44 63 18 20 6 27 -14 7z"/>
</g>
</svg>
